<svg xmlns="http://www.w3.org/2000/svg" width="240.51132202148438" height="253.743896484375" viewBox="-7.934999465942383 -9.904809951782227 240.51132202148438 253.743896484375"><title>Neo4j Graph Visualization</title><desc>Created using Neo4j (http://www.neo4j.com/)</desc><g class="layer relationships"><g class="relationship" transform="translate(123.50423735123954 130.13852100877168) rotate(411.7798925548148)"><path class="outline" fill="#A5ABB6" stroke="none" d="M 25 0.5 L 27.62421091531712 0.5 L 27.62421091531712 -0.5 L 25 -0.5 Z M 73.18671091531712 0.5 L 75.81092183063424 0.5 L 75.81092183063424 3.5 L 82.81092183063424 0 L 75.81092183063424 -3.5 L 75.81092183063424 -0.5 L 73.18671091531712 -0.5 Z"/><text text-anchor="middle" pointer-events="none" font-size="8px" fill="#000000" x="50.40546091531712" y="3" font-family="sans-serif">ACTED_IN</text></g><g class="relationship" transform="translate(123.50423735123954 130.13852100877168) rotate(315.12466880699014)"><path class="outline" fill="#A5ABB6" stroke="none" d="M 25 0.5 L 30.215459851321256 0.5 L 30.215459851321256 -0.5 L 25 -0.5 Z M 75.77795985132126 0.5 L 80.99341970264251 0.5 L 80.99341970264251 3.5 L 87.99341970264251 0 L 80.99341970264251 -3.5 L 80.99341970264251 -0.5 L 75.77795985132126 -0.5 Z"/><text text-anchor="middle" pointer-events="none" font-size="8px" fill="#000000" x="52.996709851321256" y="3" font-family="sans-serif">ACTED_IN</text></g><g class="relationship" transform="translate(123.50423735123954 130.13852100877168) rotate(258.5604017617932)"><path class="outline" fill="#A5ABB6" stroke="none" d="M 25 0.5 L 30.365745539994393 0.5 L 30.365745539994393 -0.5 L 25 -0.5 Z M 75.92824553999439 0.5 L 81.29399107998879 0.5 L 81.29399107998879 3.5 L 88.29399107998879 0 L 81.29399107998879 -3.5 L 81.29399107998879 -0.5 L 75.92824553999439 -0.5 Z"/><text text-anchor="middle" pointer-events="none" font-size="8px" fill="#000000" x="53.14699553999439" y="3" transform="rotate(180 53.14699553999439 0)" font-family="sans-serif">ACTED_IN</text></g><g class="relationship" transform="translate(123.50423735123954 130.13852100877168) rotate(205.26425514262598)"><path class="outline" fill="#A5ABB6" stroke="none" d="M 25 0.5 L 30.355755805332322 0.5 L 30.355755805332322 -0.5 L 25 -0.5 Z M 75.91825580533232 0.5 L 81.27401161066464 0.5 L 81.27401161066464 3.5 L 88.27401161066464 0 L 81.27401161066464 -3.5 L 81.27401161066464 -0.5 L 75.91825580533232 -0.5 Z"/><text text-anchor="middle" pointer-events="none" font-size="8px" fill="#000000" x="53.13700580533232" y="3" transform="rotate(180 53.13700580533232 0)" font-family="sans-serif">ACTED_IN</text></g><g class="relationship" transform="translate(123.50423735123954 130.13852100877168) rotate(508.65130928285976)"><path class="outline" fill="#A5ABB6" stroke="none" d="M 25 0.5 L 30.18630774241344 0.5 L 30.18630774241344 -0.5 L 25 -0.5 Z M 75.74880774241345 0.5 L 80.93511548482688 0.5 L 80.93511548482688 3.5 L 87.93511548482688 0 L 80.93511548482688 -3.5 L 80.93511548482688 -0.5 L 75.74880774241345 -0.5 Z"/><text text-anchor="middle" pointer-events="none" font-size="8px" fill="#000000" x="52.96755774241344" y="3" transform="rotate(180 52.96755774241344 0)" font-family="sans-serif">ACTED_IN</text></g></g><g class="layer nodes"><g class="node" transform="translate(123.50423735123954,130.13852100877168)"><circle class="outline" cx="0" cy="0" r="25" fill="#57C7E3" stroke="#23b3d7" stroke-width="2px"/><text text-anchor="middle" pointer-events="none" font-family="sans-serif" dy="1.5625" font-size="25" fill="#2A2C34"/><text text-anchor="middle" pointer-events="none" font-family="sans-serif" dy="1.5625" font-size="25" fill="#2A2C34"/><text text-anchor="middle" pointer-events="none" x="0" y="0" font-size="10px" fill="#2A2C34" font-family="sans-serif"> Hugo</text><text text-anchor="middle" pointer-events="none" x="0" y="10" font-size="10px" fill="#2A2C34" font-family="sans-serif"> Weaving</text></g><g class="node" transform="translate(190.20514553659206,214.8390742136965)"><circle class="outline" cx="0" cy="0" r="25" fill="#F79767" stroke="#f36924" stroke-width="2px"/><text text-anchor="middle" pointer-events="none" font-family="sans-serif" dy="1.5625" font-size="25" fill="#FFFFFF"/><text text-anchor="middle" pointer-events="none" font-family="sans-serif" dy="1.5625" font-size="25" fill="#FFFFFF"/><text text-anchor="middle" pointer-events="none" x="0" y="0" font-size="10px" fill="#FFFFFF" font-family="sans-serif"> Cloud</text><text text-anchor="middle" pointer-events="none" x="0" y="10" font-size="10px" fill="#FFFFFF" font-family="sans-serif"> Atlas</text></g><g class="node" transform="translate(203.57631082939383,50.41414616013095)"><circle class="outline" cx="0" cy="0" r="25" fill="#F79767" stroke="#f36924" stroke-width="2px"/><text text-anchor="middle" pointer-events="none" font-family="sans-serif" dy="1.5625" font-size="25" fill="#FFFFFF"/><text text-anchor="middle" pointer-events="none" font-family="sans-serif" dy="1.5625" font-size="25" fill="#FFFFFF"/><text text-anchor="middle" pointer-events="none" x="0" y="0" font-size="10px" fill="#FFFFFF" font-family="sans-serif"> V for</text><text text-anchor="middle" pointer-events="none" x="0" y="10" font-size="10px" fill="#FFFFFF" font-family="sans-serif"> Vendetta</text></g><g class="node" transform="translate(101.03409880701679,19.0951903281945)"><circle class="outline" cx="0" cy="0" r="25" fill="#F79767" stroke="#f36924" stroke-width="2px"/><text text-anchor="middle" pointer-events="none" font-family="sans-serif" dy="1.5625" font-size="25" fill="#FFFFFF"/><text text-anchor="middle" pointer-events="none" font-family="sans-serif" dy="1.5625" font-size="25" fill="#FFFFFF"/><text text-anchor="middle" pointer-events="none" font-family="sans-serif" dy="1.5625" font-size="25" fill="#FFFFFF"/><text text-anchor="middle" pointer-events="none" x="0" y="-5" font-size="10px" fill="#FFFFFF" font-family="sans-serif"> The</text><text text-anchor="middle" pointer-events="none" x="0" y="5" font-size="10px" fill="#FFFFFF" font-family="sans-serif"> Matrix</text><text text-anchor="middle" pointer-events="none" x="0" y="15" font-size="10px" fill="#FFFFFF" font-family="sans-serif"> Revol…</text></g><g class="node" transform="translate(21.064999639723858,81.79388031865409)"><circle class="outline" cx="0" cy="0" r="25" fill="#F79767" stroke="#f36924" stroke-width="2px"/><text text-anchor="middle" pointer-events="none" font-family="sans-serif" dy="1.5625" font-size="25" fill="#FFFFFF"/><text text-anchor="middle" pointer-events="none" font-family="sans-serif" dy="1.5625" font-size="25" fill="#FFFFFF"/><text text-anchor="middle" pointer-events="none" font-family="sans-serif" dy="1.5625" font-size="25" fill="#FFFFFF"/><text text-anchor="middle" pointer-events="none" x="0" y="-5" font-size="10px" fill="#FFFFFF" font-family="sans-serif"> The</text><text text-anchor="middle" pointer-events="none" x="0" y="5" font-size="10px" fill="#FFFFFF" font-family="sans-serif"> Matrix</text><text text-anchor="middle" pointer-events="none" x="0" y="15" font-size="10px" fill="#FFFFFF" font-family="sans-serif"> Reloa…</text></g><g class="node" transform="translate(27.05572573782242,188.89245634188558)"><circle class="outline" cx="0" cy="0" r="25" fill="#F79767" stroke="#f36924" stroke-width="2px"/><text text-anchor="middle" pointer-events="none" font-family="sans-serif" dy="1.5625" font-size="25" fill="#FFFFFF"/><text text-anchor="middle" pointer-events="none" font-family="sans-serif" dy="1.5625" font-size="25" fill="#FFFFFF"/><text text-anchor="middle" pointer-events="none" x="0" y="0" font-size="10px" fill="#FFFFFF" font-family="sans-serif"> The</text><text text-anchor="middle" pointer-events="none" x="0" y="10" font-size="10px" fill="#FFFFFF" font-family="sans-serif"> Matrix</text></g></g></svg>