<svg xmlns="http://www.w3.org/2000/svg" width="573.352294921875" height="552.2507934570312" viewBox="-343.2230529785156 -181.6883544921875 573.352294921875 552.2507934570312"><title>Neo4j Graph Visualization</title><desc>Created using Neo4j (http://www.neo4j.com/)</desc><g class="layer relationships"><g class="relationship" transform="translate(-314.2230506327638 217.7699673411434) rotate(346.41318612507985)"><path class="outline" fill="#A5ABB6" stroke="none" d="M 25 0.5 L 79.2341926464698 0.5 L 79.2341926464698 -0.5 L 25 -0.5 Z M 124.7966926464698 0.5 L 179.0308852929396 0.5 L 179.0308852929396 3.5 L 186.0308852929396 0 L 179.0308852929396 -3.5 L 179.0308852929396 -0.5 L 124.7966926464698 -0.5 Z"/><text text-anchor="middle" pointer-events="none" font-size="8px" fill="#000000" x="102.0154426464698" y="3" font-family="sans-serif">ACTED_IN</text></g><g class="relationship" transform="translate(195.06588491629478 237.5175881713335) rotate(192.8391075235591)"><path class="outline" fill="#A5ABB6" stroke="none" d="M 25 0.5 L 129.03642238222488 0.5 L 129.03642238222488 -0.5 L 25 -0.5 Z M 175.92704738222488 0.5 L 279.96346976444977 0.5 L 279.96346976444977 3.5 L 286.96346976444977 0 L 279.96346976444977 -3.5 L 279.96346976444977 -0.5 L 175.92704738222488 -0.5 Z"/><text text-anchor="middle" pointer-events="none" font-size="8px" fill="#000000" x="152.48173488222488" y="3" transform="rotate(180 152.48173488222488 0)" font-family="sans-serif">DIRECTED</text></g><g class="relationship" transform="translate(201.1292319026705 87.33653646997504) rotate(525.3913027723311)"><path class="outline" fill="#A5ABB6" stroke="none" d="M 25 0.5 L 133.350444337736 0.5 L 133.350444337736 -0.5 L 25 -0.5 Z M 180.241069337736 0.5 L 288.591513675472 0.5 L 288.591513675472 3.5 L 295.591513675472 0 L 288.591513675472 -3.5 L 288.591513675472 -0.5 L 180.241069337736 -0.5 Z"/><text text-anchor="middle" pointer-events="none" font-size="8px" fill="#000000" x="156.795756837736" y="3" transform="rotate(180 156.795756837736 0)" font-family="sans-serif">DIRECTED</text></g><g class="relationship" transform="translate(156.5050181393376 -39.36245419019731) rotate(501.99388151722826)"><path class="outline" fill="#A5ABB6" stroke="none" d="M 25 0.5 L 141.59618613554989 0.5 L 141.59618613554989 -0.5 L 25 -0.5 Z M 188.48681113554989 0.5 L 305.08299727109977 0.5 L 305.08299727109977 3.5 L 312.08299727109977 0 L 305.08299727109977 -3.5 L 305.08299727109977 -0.5 L 188.48681113554989 -0.5 Z"/><text text-anchor="middle" pointer-events="none" font-size="8px" fill="#000000" x="165.04149863554989" y="3" transform="rotate(180 165.04149863554989 0)" font-family="sans-serif">DIRECTED</text></g><g class="relationship" transform="translate(-314.2230506327638 217.7699673411434) rotate(292.85004324060304)"><path class="outline" fill="#A5ABB6" stroke="none" d="M 25 0.5 L 106.9510291579702 0.5 L 106.9510291579702 -0.5 L 25 -0.5 Z M 152.5135291579702 0.5 L 234.4645583159404 0.5 L 234.4645583159404 3.5 L 241.4645583159404 0 L 234.4645583159404 -3.5 L 234.4645583159404 -0.5 L 152.5135291579702 -0.5 Z"/><text text-anchor="middle" pointer-events="none" font-size="8px" fill="#000000" x="129.7322791579702" y="3" font-family="sans-serif">ACTED_IN</text></g><g class="relationship" transform="translate(141.2175496214769 -152.6883576219769) rotate(520.4614276341339)"><path class="outline" fill="#A5ABB6" stroke="none" d="M 25 0.5 L 159.79107205273849 0.5 L 159.79107205273849 -0.5 L 25 -0.5 Z M 206.68169705273849 0.5 L 341.47276910547697 0.5 L 341.47276910547697 3.5 L 348.47276910547697 0 L 341.47276910547697 -3.5 L 341.47276910547697 -0.5 L 206.68169705273849 -0.5 Z"/><text text-anchor="middle" pointer-events="none" font-size="8px" fill="#000000" x="183.23638455273849" y="3" transform="rotate(180 183.23638455273849 0)" font-family="sans-serif">DIRECTED</text></g><g class="relationship" transform="translate(-314.2230506327638 217.7699673411434) rotate(320.5164140499935)"><path class="outline" fill="#A5ABB6" stroke="none" d="M 25 0.5 L 63.77169214770606 0.5 L 63.77169214770606 -0.5 L 25 -0.5 Z M 109.33419214770606 0.5 L 148.10588429541212 0.5 L 148.10588429541212 3.5 L 155.10588429541212 0 L 148.10588429541212 -3.5 L 148.10588429541212 -0.5 L 109.33419214770606 -0.5 Z"/><text text-anchor="middle" pointer-events="none" font-size="8px" fill="#000000" x="86.55294214770606" y="3" font-family="sans-serif">ACTED_IN</text></g><g class="relationship" transform="translate(201.1292319026705 87.33653646997504) rotate(537.5789858720598)"><path class="outline" fill="#A5ABB6" stroke="none" d="M 25 0.5 L 161.395470081559 0.5 L 161.395470081559 -0.5 L 25 -0.5 Z M 208.286095081559 0.5 L 344.681565163118 0.5 L 344.681565163118 3.5 L 351.681565163118 0 L 344.681565163118 -3.5 L 344.681565163118 -0.5 L 208.286095081559 -0.5 Z"/><text text-anchor="middle" pointer-events="none" font-size="8px" fill="#000000" x="184.840782581559" y="3" transform="rotate(180 184.840782581559 0)" font-family="sans-serif">DIRECTED</text></g><g class="relationship" transform="translate(156.5050181393376 -39.36245419019731) rotate(516.736562820633)"><path class="outline" fill="#A5ABB6" stroke="none" d="M 25 0.5 L 153.59329072241655 0.5 L 153.59329072241655 -0.5 L 25 -0.5 Z M 200.48391572241655 0.5 L 329.0772064448331 0.5 L 329.0772064448331 3.5 L 336.0772064448331 0 L 329.0772064448331 -3.5 L 329.0772064448331 -0.5 L 200.48391572241655 -0.5 Z"/><text text-anchor="middle" pointer-events="none" font-size="8px" fill="#000000" x="177.03860322241655" y="3" transform="rotate(180 177.03860322241655 0)" font-family="sans-serif">DIRECTED</text></g><g class="relationship" transform="translate(-314.2230506327638 217.7699673411434) rotate(370.2296440591633)"><path class="outline" fill="#A5ABB6" stroke="none" d="M 25 0.5 L 84.80288420916268 0.5 L 84.80288420916268 -0.5 L 25 -0.5 Z M 130.3653842091627 0.5 L 190.16826841832537 0.5 L 190.16826841832537 3.5 L 197.16826841832537 0 L 190.16826841832537 -3.5 L 190.16826841832537 -0.5 L 130.3653842091627 -0.5 Z"/><text text-anchor="middle" pointer-events="none" font-size="8px" fill="#000000" x="107.58413420916268" y="3" font-family="sans-serif">ACTED_IN</text></g><g class="relationship" transform="translate(201.1292319026705 87.33653646997504) rotate(510.20603178599816)"><path class="outline" fill="#A5ABB6" stroke="none" d="M 25 0.5 L 144.00972225539357 0.5 L 144.00972225539357 -0.5 L 25 -0.5 Z M 190.90034725539357 0.5 L 309.91006951078714 0.5 L 309.91006951078714 3.5 L 316.91006951078714 0 L 309.91006951078714 -3.5 L 309.91006951078714 -0.5 L 190.90034725539357 -0.5 Z"/><text text-anchor="middle" pointer-events="none" font-size="8px" fill="#000000" x="167.45503475539357" y="3" transform="rotate(180 167.45503475539357 0)" font-family="sans-serif">DIRECTED</text></g><g class="relationship" transform="translate(156.5050181393376 -39.36245419019731) rotate(490.3635817235288)"><path class="outline" fill="#A5ABB6" stroke="none" d="M 25 0.5 L 167.67908109595538 0.5 L 167.67908109595538 -0.5 L 25 -0.5 Z M 214.56970609595538 0.5 L 357.24878719191076 0.5 L 357.24878719191076 3.5 L 364.24878719191076 0 L 357.24878719191076 -3.5 L 357.24878719191076 -0.5 L 214.56970609595538 -0.5 Z"/><text text-anchor="middle" pointer-events="none" font-size="8px" fill="#000000" x="191.12439359595538" y="3" transform="rotate(180 191.12439359595538 0)" font-family="sans-serif">DIRECTED</text></g><g class="relationship" transform="translate(-314.2230506327638 217.7699673411434) rotate(385.6663624118592)"><path class="outline" fill="#A5ABB6" stroke="none" d="M 25 0.5 L 116.62328620400694 0.5 L 116.62328620400694 -0.5 L 25 -0.5 Z M 162.18578620400694 0.5 L 253.8090724080139 0.5 L 253.8090724080139 3.5 L 260.8090724080139 0 L 253.8090724080139 -3.5 L 253.8090724080139 -0.5 L 162.18578620400694 -0.5 Z"/><text text-anchor="middle" pointer-events="none" font-size="8px" fill="#000000" x="139.40453620400694" y="3" font-family="sans-serif">ACTED_IN</text></g><g class="relationship" transform="translate(201.1292319026705 87.33653646997504) rotate(495.3936638133457)"><path class="outline" fill="#A5ABB6" stroke="none" d="M 25 0.5 L 154.06750833257428 0.5 L 154.06750833257428 -0.5 L 25 -0.5 Z M 200.95813333257428 0.5 L 330.02564166514856 0.5 L 330.02564166514856 3.5 L 337.02564166514856 0 L 330.02564166514856 -3.5 L 330.02564166514856 -0.5 L 200.95813333257428 -0.5 Z"/><text text-anchor="middle" pointer-events="none" font-size="8px" fill="#000000" x="177.51282083257428" y="3" transform="rotate(180 177.51282083257428 0)" font-family="sans-serif">DIRECTED</text></g><g class="relationship" transform="translate(156.5050181393376 -39.36245419019731) rotate(479.22608231241134)"><path class="outline" fill="#A5ABB6" stroke="none" d="M 25 0.5 L 191.29975888848367 0.5 L 191.29975888848367 -0.5 L 25 -0.5 Z M 238.19038388848367 0.5 L 404.49014277696733 0.5 L 404.49014277696733 3.5 L 411.49014277696733 0 L 404.49014277696733 -3.5 L 404.49014277696733 -0.5 L 238.19038388848367 -0.5 Z"/><text text-anchor="middle" pointer-events="none" font-size="8px" fill="#000000" x="214.74507138848367" y="3" transform="rotate(180 214.74507138848367 0)" font-family="sans-serif">DIRECTED</text></g><g class="relationship" transform="translate(201.1292319026705 87.33653646997504) rotate(195.6156875165591)"><path class="outline" fill="#A5ABB6" stroke="none" d="M 24.018736134675446,6.953439040707552 L 24.277555179777966,5.987513214418485 A 730.5800676306964 730.5800676306964 0 0 0 192.44716303674454,30.58188916131644 L 192.41853040831,31.58147916356188 A 731.5800676306964 731.5800676306964 0 0 1 24.018736134675446,6.953439040707552 Z M 228.21255150719807,31.730754931332854 L 228.1922571313543,30.730960883386388 A 730.5800676306964 730.5800676306964 0 0 0 396.5611490973803,7.540088689441993 L 395.8088883943066,4.635935829379163 L 403.46288255470586,6.268839192280585 L 397.5641633681452,11.412292502859101 L 396.81190266507156,8.50813964279627 A 731.5800676306964 731.5800676306964 0 0 1 228.21255150719807,31.730754931332854"/><text text-anchor="middle" pointer-events="none" font-size="8px" fill="#000000" x="210.31671304836794" y="34.375067840392035" transform="rotate(180 210.31671304836794 31.375067840392035)" font-family="sans-serif">WROTE</text></g><g class="relationship" transform="translate(201.1292319026705 87.33653646997504) rotate(195.6156875165591)"><path class="outline" fill="#A5ABB6" stroke="none" d="M 24.018736134675446,-6.953439040707552 L 24.277555179777966,-5.987513214418485 A 730.5800676306964 730.5800676306964 0 0 1 184.45342349832092,-30.30911234082521 L 184.4138492361181,-31.30832897287803 A 731.5800676306964 731.5800676306964 0 0 0 24.018736134675446,-6.953439040707552 Z M 236.21923250151534,-31.524378696385043 L 236.18799375833765,-30.52486674501847 A 730.5800676306964 730.5800676306964 0 0 1 396.5611490973803,-7.540088689441993 L 395.8088883943066,-4.635935829379163 L 403.46288255470586,-6.268839192280585 L 397.5641633681452,-11.412292502859101 L 396.81190266507156,-8.50813964279627 A 731.5800676306964 731.5800676306964 0 0 0 236.21923250151534,-31.524378696385043"/><text text-anchor="middle" pointer-events="none" font-size="8px" fill="#000000" x="210.31671304836792" y="-28.375067840392035" transform="rotate(180 210.31671304836792 -31.375067840392035)" font-family="sans-serif">PRODUCED</text></g><g class="relationship" transform="translate(156.5050181393376 -39.36245419019731) rotate(538.1941690672272)"><path class="outline" fill="#A5ABB6" stroke="none" d="M 24.018736134675446,6.953439040707552 L 24.277555179777966,5.987513214418485 A 613.9344606409834 613.9344606409834 0 0 0 162.3349015685881,26.552994061756408 L 162.30095562515945,27.55241773214084 A 614.9344606409834 614.9344606409834 0 0 1 24.018736134675446,6.953439040707552 Z M 198.09802787243268,27.72573423061897 L 198.073760990693,26.72602871475408 A 613.9344606409834 613.9344606409834 0 0 0 336.3237715948342,7.498328322951672 L 335.57541018800003,4.593168223273662 L 343.2272053952219,6.23634505695156 L 337.32158680394645,11.371875122522354 L 336.57322539711225,8.466715022844342 A 614.9344606409834 614.9344606409834 0 0 1 198.09802787243268,27.72573423061897"/><text text-anchor="middle" pointer-events="none" font-size="8px" fill="#000000" x="180.20065110249675" y="30.399621177315566" transform="rotate(180 180.20065110249675 27.399621177315566)" font-family="sans-serif">WROTE</text></g><g class="relationship" transform="translate(156.5050181393376 -39.36245419019731) rotate(538.1941690672272)"><path class="outline" fill="#A5ABB6" stroke="none" d="M 24.018736134675446,-6.953439040707552 L 24.277555179777966,-5.987513214418485 A 613.9344606409834 613.9344606409834 0 0 1 154.34411190943075,-26.229464582727587 L 154.2971502612788,-27.22836127588596 A 614.9344606409834 614.9344606409834 0 0 0 24.018736134675446,-6.953439040707552 Z M 206.10459585837307,-27.479194221216403 L 206.06730877936297,-26.479889626140903 A 613.9344606409834 613.9344606409834 0 0 1 336.3237715948342,-7.498328322951672 L 335.57541018800003,-4.593168223273662 L 343.2272053952219,-6.23634505695156 L 337.32158680394645,-11.371875122522354 L 336.57322539711225,-8.466715022844342 A 614.9344606409834 614.9344606409834 0 0 0 206.10459585837307,-27.479194221216403"/><text text-anchor="middle" pointer-events="none" font-size="8px" fill="#000000" x="180.2006511024967" y="-24.399621177315566" transform="rotate(180 180.2006511024967 -27.399621177315566)" font-family="sans-serif">PRODUCED</text></g></g><g class="layer nodes"><g class="node" transform="translate(-314.2230506327638,217.7699673411434)"><circle class="outline" cx="0" cy="0" r="25" fill="#57C7E3" stroke="#23b3d7" stroke-width="2px"/><text text-anchor="middle" pointer-events="none" font-family="sans-serif" dy="1.5625" font-size="25" fill="#2A2C34"/><text text-anchor="middle" pointer-events="none" font-family="sans-serif" dy="1.5625" font-size="25" fill="#2A2C34"/><text text-anchor="middle" pointer-events="none" x="0" y="0" font-size="10px" fill="#2A2C34" font-family="sans-serif"> Hugo</text><text text-anchor="middle" pointer-events="none" x="0" y="10" font-size="10px" fill="#2A2C34" font-family="sans-serif"> Weaving</text></g><g class="node" transform="translate(-109.09784551384635,168.19492551116736)"><circle class="outline" cx="0" cy="0" r="25" fill="#F79767" stroke="#f36924" stroke-width="2px"/><text text-anchor="middle" pointer-events="none" font-family="sans-serif" dy="1.5625" font-size="25" fill="#FFFFFF"/><text text-anchor="middle" pointer-events="none" font-family="sans-serif" dy="1.5625" font-size="25" fill="#FFFFFF"/><text text-anchor="middle" pointer-events="none" x="0" y="0" font-size="10px" fill="#FFFFFF" font-family="sans-serif"> Cloud</text><text text-anchor="middle" pointer-events="none" x="0" y="10" font-size="10px" fill="#FFFFFF" font-family="sans-serif"> Atlas</text></g><g class="node" transform="translate(195.06588491629478,237.5175881713335)"><circle class="outline" cx="0" cy="0" r="25" fill="#57C7E3" stroke="#23b3d7" stroke-width="2px"/><text text-anchor="middle" pointer-events="none" font-family="sans-serif" dy="1.5625" font-size="25" fill="#2A2C34"/><text text-anchor="middle" pointer-events="none" font-family="sans-serif" dy="1.5625" font-size="25" fill="#2A2C34"/><text text-anchor="middle" pointer-events="none" x="0" y="0" font-size="10px" fill="#2A2C34" font-family="sans-serif"> Tom</text><text text-anchor="middle" pointer-events="none" x="0" y="10" font-size="10px" fill="#2A2C34" font-family="sans-serif"> Tykwer</text></g><g class="node" transform="translate(201.1292319026705,87.33653646997504)"><circle class="outline" cx="0" cy="0" r="25" fill="#57C7E3" stroke="#23b3d7" stroke-width="2px"/><text text-anchor="middle" pointer-events="none" font-family="sans-serif" dy="1.5625" font-size="25" fill="#2A2C34"/><text text-anchor="middle" pointer-events="none" font-family="sans-serif" dy="1.5625" font-size="25" fill="#2A2C34"/><text text-anchor="middle" pointer-events="none" x="0" y="0" font-size="10px" fill="#2A2C34" font-family="sans-serif"> Lana</text><text text-anchor="middle" pointer-events="none" x="0" y="10" font-size="10px" fill="#2A2C34" font-family="sans-serif"> Wacho…</text></g><g class="node" transform="translate(156.5050181393376,-39.36245419019731)"><circle class="outline" cx="0" cy="0" r="25" fill="#57C7E3" stroke="#23b3d7" stroke-width="2px"/><text text-anchor="middle" pointer-events="none" font-family="sans-serif" dy="1.5625" font-size="25" fill="#2A2C34"/><text text-anchor="middle" pointer-events="none" font-family="sans-serif" dy="1.5625" font-size="25" fill="#2A2C34"/><text text-anchor="middle" pointer-events="none" x="0" y="0" font-size="10px" fill="#2A2C34" font-family="sans-serif"> Andy</text><text text-anchor="middle" pointer-events="none" x="0" y="10" font-size="10px" fill="#2A2C34" font-family="sans-serif"> Wacho…</text></g><g class="node" transform="translate(-210.74937037152011,-27.783607936642156)"><circle class="outline" cx="0" cy="0" r="25" fill="#F79767" stroke="#f36924" stroke-width="2px"/><text text-anchor="middle" pointer-events="none" font-family="sans-serif" dy="1.5625" font-size="25" fill="#FFFFFF"/><text text-anchor="middle" pointer-events="none" font-family="sans-serif" dy="1.5625" font-size="25" fill="#FFFFFF"/><text text-anchor="middle" pointer-events="none" x="0" y="0" font-size="10px" fill="#FFFFFF" font-family="sans-serif"> V for</text><text text-anchor="middle" pointer-events="none" x="0" y="10" font-size="10px" fill="#FFFFFF" font-family="sans-serif"> Vendetta</text></g><g class="node" transform="translate(141.2175496214769,-152.6883576219769)"><circle class="outline" cx="0" cy="0" r="25" fill="#57C7E3" stroke="#23b3d7" stroke-width="2px"/><text text-anchor="middle" pointer-events="none" font-family="sans-serif" dy="1.5625" font-size="25" fill="#2A2C34"/><text text-anchor="middle" pointer-events="none" font-family="sans-serif" dy="1.5625" font-size="25" fill="#2A2C34"/><text text-anchor="middle" pointer-events="none" x="0" y="0" font-size="10px" fill="#2A2C34" font-family="sans-serif"> James</text><text text-anchor="middle" pointer-events="none" x="0" y="10" font-size="10px" fill="#2A2C34" font-family="sans-serif"> Marshall</text></g><g class="node" transform="translate(-175.21610893216956,103.24835489667952)"><circle class="outline" cx="0" cy="0" r="25" fill="#F79767" stroke="#f36924" stroke-width="2px"/><text text-anchor="middle" pointer-events="none" font-family="sans-serif" dy="1.5625" font-size="25" fill="#FFFFFF"/><text text-anchor="middle" pointer-events="none" font-family="sans-serif" dy="1.5625" font-size="25" fill="#FFFFFF"/><text text-anchor="middle" pointer-events="none" font-family="sans-serif" dy="1.5625" font-size="25" fill="#FFFFFF"/><text text-anchor="middle" pointer-events="none" x="0" y="-5" font-size="10px" fill="#FFFFFF" font-family="sans-serif"> The</text><text text-anchor="middle" pointer-events="none" x="0" y="5" font-size="10px" fill="#FFFFFF" font-family="sans-serif"> Matrix</text><text text-anchor="middle" pointer-events="none" x="0" y="15" font-size="10px" fill="#FFFFFF" font-family="sans-serif"> Revol…</text></g><g class="node" transform="translate(-95.58640122325392,257.225702373964)"><circle class="outline" cx="0" cy="0" r="25" fill="#F79767" stroke="#f36924" stroke-width="2px"/><text text-anchor="middle" pointer-events="none" font-family="sans-serif" dy="1.5625" font-size="25" fill="#FFFFFF"/><text text-anchor="middle" pointer-events="none" font-family="sans-serif" dy="1.5625" font-size="25" fill="#FFFFFF"/><text text-anchor="middle" pointer-events="none" font-family="sans-serif" dy="1.5625" font-size="25" fill="#FFFFFF"/><text text-anchor="middle" pointer-events="none" x="0" y="-5" font-size="10px" fill="#FFFFFF" font-family="sans-serif"> The</text><text text-anchor="middle" pointer-events="none" x="0" y="5" font-size="10px" fill="#FFFFFF" font-family="sans-serif"> Matrix</text><text text-anchor="middle" pointer-events="none" x="0" y="15" font-size="10px" fill="#FFFFFF" font-family="sans-serif"> Reloa…</text></g><g class="node" transform="translate(-56.614341693304425,341.56245075299773)"><circle class="outline" cx="0" cy="0" r="25" fill="#F79767" stroke="#f36924" stroke-width="2px"/><text text-anchor="middle" pointer-events="none" font-family="sans-serif" dy="1.5625" font-size="25" fill="#FFFFFF"/><text text-anchor="middle" pointer-events="none" font-family="sans-serif" dy="1.5625" font-size="25" fill="#FFFFFF"/><text text-anchor="middle" pointer-events="none" x="0" y="0" font-size="10px" fill="#FFFFFF" font-family="sans-serif"> The</text><text text-anchor="middle" pointer-events="none" x="0" y="10" font-size="10px" fill="#FFFFFF" font-family="sans-serif"> Matrix</text></g></g></svg>