<svg xmlns="http://www.w3.org/2000/svg" width="539.6558837890625" height="462.212646484375" viewBox="-226.49972534179688 -158.7165985107422 539.6558837890625 462.212646484375"><title>Neo4j Graph Visualization</title><desc>Created using Neo4j (http://www.neo4j.com/)</desc><g class="layer relationships"><g class="relationship" transform="translate(36.3987133847404 24.57403394377077) rotate(422.6639396792703)"><path class="outline" fill="#A5ABB6" stroke="none" d="M 25 0.5 L 45.14114597289783 0.5 L 45.14114597289783 -0.5 L 25 -0.5 Z M 90.70364597289783 0.5 L 110.84479194579566 0.5 L 110.84479194579566 3.5 L 117.84479194579566 0 L 110.84479194579566 -3.5 L 110.84479194579566 -0.5 L 90.70364597289783 -0.5 Z"/><text text-anchor="middle" pointer-events="none" font-size="8px" fill="#000000" x="67.92239597289783" y="3" font-family="sans-serif">ACTED_IN</text></g><g class="relationship" transform="translate(78.73760231526731 274.49604731099487) rotate(280.7045548287438)"><path class="outline" fill="#A5ABB6" stroke="none" d="M 25 0.5 L 36.32264512770358 0.5 L 36.32264512770358 -0.5 L 25 -0.5 Z M 81.88514512770358 0.5 L 93.20779025540716 0.5 L 93.20779025540716 3.5 L 100.20779025540716 0 L 93.20779025540716 -3.5 L 93.20779025540716 -0.5 L 81.88514512770358 -0.5 Z"/><text text-anchor="middle" pointer-events="none" font-size="8px" fill="#000000" x="59.10389512770358" y="3" font-family="sans-serif">ACTED_IN</text></g><g class="relationship" transform="translate(164.88274120695195 264.4559127115531) rotate(240.90011774712127)"><path class="outline" fill="#A5ABB6" stroke="none" d="M 25 0.5 L 38.374424368286256 0.5 L 38.374424368286256 -0.5 L 25 -0.5 Z M 83.93692436828626 0.5 L 97.31134873657251 0.5 L 97.31134873657251 3.5 L 104.31134873657251 0 L 97.31134873657251 -3.5 L 97.31134873657251 -0.5 L 83.93692436828626 -0.5 Z"/><text text-anchor="middle" pointer-events="none" font-size="8px" fill="#000000" x="61.155674368286256" y="3" transform="rotate(180 61.155674368286256 0)" font-family="sans-serif">ACTED_IN</text></g><g class="relationship" transform="translate(218.05871152582938 200.60583543343554) rotate(202.9465602643695)"><path class="outline" fill="#A5ABB6" stroke="none" d="M 25 0.5 L 36.73772243596609 0.5 L 36.73772243596609 -0.5 L 25 -0.5 Z M 82.30022243596609 0.5 L 94.03794487193218 0.5 L 94.03794487193218 3.5 L 101.03794487193218 0 L 94.03794487193218 -3.5 L 94.03794487193218 -0.5 L 82.30022243596609 -0.5 Z"/><text text-anchor="middle" pointer-events="none" font-size="8px" fill="#000000" x="59.51897243596609" y="3" transform="rotate(180 59.51897243596609 0)" font-family="sans-serif">ACTED_IN</text></g><g class="relationship" transform="translate(36.3987133847404 24.57403394377077) rotate(342.95686705593494)"><path class="outline" fill="#A5ABB6" stroke="none" d="M 25 0.5 L 37.59146462099054 0.5 L 37.59146462099054 -0.5 L 25 -0.5 Z M 83.15396462099054 0.5 L 95.74542924198109 0.5 L 95.74542924198109 3.5 L 102.74542924198109 0 L 95.74542924198109 -3.5 L 95.74542924198109 -0.5 L 83.15396462099054 -0.5 Z"/><text text-anchor="middle" pointer-events="none" font-size="8px" fill="#000000" x="60.37271462099054" y="3" font-family="sans-serif">ACTED_IN</text></g><g class="relationship" transform="translate(253.00069603728645 65.61436629975569) rotate(219.71930302412625)"><path class="outline" fill="#A5ABB6" stroke="none" d="M 25 0.5 L 35.125731023068205 0.5 L 35.125731023068205 -0.5 L 25 -0.5 Z M 80.6882310230682 0.5 L 90.81396204613641 0.5 L 90.81396204613641 3.5 L 97.81396204613641 0 L 90.81396204613641 -3.5 L 90.81396204613641 -0.5 L 80.6882310230682 -0.5 Z"/><text text-anchor="middle" pointer-events="none" font-size="8px" fill="#000000" x="57.906981023068205" y="3" transform="rotate(180 57.906981023068205 0)" font-family="sans-serif">ACTED_IN</text></g><g class="relationship" transform="translate(284.1561809206836 -7.944778352265623) rotate(182.24389229611523)"><path class="outline" fill="#A5ABB6" stroke="none" d="M 25 0.5 L 36.57797822129329 0.5 L 36.57797822129329 -0.5 L 25 -0.5 Z M 82.1404782212933 0.5 L 93.71845644258659 0.5 L 93.71845644258659 3.5 L 100.71845644258659 0 L 93.71845644258659 -3.5 L 93.71845644258659 -0.5 L 82.1404782212933 -0.5 Z"/><text text-anchor="middle" pointer-events="none" font-size="8px" fill="#000000" x="59.35922822129329" y="3" transform="rotate(180 59.35922822129329 0)" font-family="sans-serif">ACTED_IN</text></g><g class="relationship" transform="translate(252.6834250164 -89.10514134977913) rotate(501.0009300411782)"><path class="outline" fill="#A5ABB6" stroke="none" d="M 25 0.5 L 34.291711021172645 0.5 L 34.291711021172645 -0.5 L 25 -0.5 Z M 79.85421102117265 0.5 L 89.14592204234529 0.5 L 89.14592204234529 3.5 L 96.14592204234529 0 L 89.14592204234529 -3.5 L 89.14592204234529 -0.5 L 79.85421102117265 -0.5 Z"/><text text-anchor="middle" pointer-events="none" font-size="8px" fill="#000000" x="57.072961021172645" y="3" transform="rotate(180 57.072961021172645 0)" font-family="sans-serif">ACTED_IN</text></g><g class="relationship" transform="translate(163.76848726668004 -129.71659292927998) rotate(452.56489361620436)"><path class="outline" fill="#A5ABB6" stroke="none" d="M 25 0.5 L 32.20210113916329 0.5 L 32.20210113916329 -0.5 L 25 -0.5 Z M 77.76460113916329 0.5 L 84.96670227832658 0.5 L 84.96670227832658 3.5 L 91.96670227832658 0 L 84.96670227832658 -3.5 L 84.96670227832658 -0.5 L 77.76460113916329 -0.5 Z"/><text text-anchor="middle" pointer-events="none" font-size="8px" fill="#000000" x="54.98335113916329" y="3" transform="rotate(180 54.98335113916329 0)" font-family="sans-serif">ACTED_IN</text></g><g class="relationship" transform="translate(36.3987133847404 24.57403394377077) rotate(212.71800149034317)"><path class="outline" fill="#A5ABB6" stroke="none" d="M 25 0.5 L 41.390348268033605 0.5 L 41.390348268033605 -0.5 L 25 -0.5 Z M 86.9528482680336 0.5 L 103.34319653606721 0.5 L 103.34319653606721 3.5 L 110.34319653606721 0 L 103.34319653606721 -3.5 L 103.34319653606721 -0.5 L 86.9528482680336 -0.5 Z"/><text text-anchor="middle" pointer-events="none" font-size="8px" fill="#000000" x="64.1715982680336" y="3" transform="rotate(180 64.1715982680336 0)" font-family="sans-serif">ACTED_IN</text></g><g class="relationship" transform="translate(-197.49972376285746 7.96976715015159) rotate(334.7733654538956)"><path class="outline" fill="#A5ABB6" stroke="none" d="M 25 0.5 L 40.06011901823965 0.5 L 40.06011901823965 -0.5 L 25 -0.5 Z M 85.62261901823965 0.5 L 100.6827380364793 0.5 L 100.6827380364793 3.5 L 107.6827380364793 0 L 100.6827380364793 -3.5 L 100.6827380364793 -0.5 L 85.62261901823965 -0.5 Z"/><text text-anchor="middle" pointer-events="none" font-size="8px" fill="#000000" x="62.84136901823965" y="3" font-family="sans-serif">ACTED_IN</text></g><g class="relationship" transform="translate(-175.82781442527843 -79.63484424270197) rotate(377.52303696728825)"><path class="outline" fill="#A5ABB6" stroke="none" d="M 25 0.5 L 25.290248870552773 0.5 L 25.290248870552773 -0.5 L 25 -0.5 Z M 70.85274887055277 0.5 L 71.14299774110555 0.5 L 71.14299774110555 3.5 L 78.14299774110555 0 L 71.14299774110555 -3.5 L 71.14299774110555 -0.5 L 70.85274887055277 -0.5 Z"/><text text-anchor="middle" pointer-events="none" font-size="8px" fill="#000000" x="48.07149887055277" y="3" font-family="sans-serif">ACTED_IN</text></g><g class="relationship" transform="translate(-169.9630858384023 85.87649739167406) rotate(304.5239873118107)"><path class="outline" fill="#A5ABB6" stroke="none" d="M 25 0.5 L 55.31717976332425 0.5 L 55.31717976332425 -0.5 L 25 -0.5 Z M 100.87967976332425 0.5 L 131.1968595266485 0.5 L 131.1968595266485 3.5 L 138.1968595266485 0 L 131.1968595266485 -3.5 L 131.1968595266485 -0.5 L 100.87967976332425 -0.5 Z"/><text text-anchor="middle" pointer-events="none" font-size="8px" fill="#000000" x="78.09842976332425" y="3" font-family="sans-serif">ACTED_IN</text></g><g class="relationship" transform="translate(36.3987133847404 24.57403394377077) rotate(186.64351778712427)"><path class="outline" fill="#A5ABB6" stroke="none" d="M 25 0.5 L 37.834687569951484 0.5 L 37.834687569951484 -0.5 L 25 -0.5 Z M 83.39718756995148 0.5 L 96.23187513990297 0.5 L 96.23187513990297 3.5 L 103.23187513990297 0 L 96.23187513990297 -3.5 L 96.23187513990297 -0.5 L 83.39718756995148 -0.5 Z"/><text text-anchor="middle" pointer-events="none" font-size="8px" fill="#000000" x="60.615937569951484" y="3" transform="rotate(180 60.615937569951484 0)" font-family="sans-serif">ACTED_IN</text></g><g class="relationship" transform="translate(-197.49972376285746 7.96976715015159) rotate(360.95132154246744)"><path class="outline" fill="#A5ABB6" stroke="none" d="M 25 0.5 L 26.989900715199347 0.5 L 26.989900715199347 -0.5 L 25 -0.5 Z M 72.55240071519935 0.5 L 74.5423014303987 0.5 L 74.5423014303987 3.5 L 81.5423014303987 0 L 74.5423014303987 -3.5 L 74.5423014303987 -0.5 L 72.55240071519935 -0.5 Z"/><text text-anchor="middle" pointer-events="none" font-size="8px" fill="#000000" x="49.77115071519935" y="3" font-family="sans-serif">ACTED_IN</text></g><g class="relationship" transform="translate(-175.82781442527843 -79.63484424270197) rotate(406.4853648982802)"><path class="outline" fill="#A5ABB6" stroke="none" d="M 25 0.5 L 35.33879146099629 0.5 L 35.33879146099629 -0.5 L 25 -0.5 Z M 80.90129146099629 0.5 L 91.24008292199258 0.5 L 91.24008292199258 3.5 L 98.24008292199258 0 L 91.24008292199258 -3.5 L 91.24008292199258 -0.5 L 80.90129146099629 -0.5 Z"/><text text-anchor="middle" pointer-events="none" font-size="8px" fill="#000000" x="58.12004146099629" y="3" font-family="sans-serif">ACTED_IN</text></g><g class="relationship" transform="translate(-169.9630858384023 85.87649739167406) rotate(316.0536774758378)"><path class="outline" fill="#A5ABB6" stroke="none" d="M 25 0.5 L 28.574336753578756 0.5 L 28.574336753578756 -0.5 L 25 -0.5 Z M 74.13683675357876 0.5 L 77.71117350715751 0.5 L 77.71117350715751 3.5 L 84.71117350715751 0 L 77.71117350715751 -3.5 L 77.71117350715751 -0.5 L 74.13683675357876 -0.5 Z"/><text text-anchor="middle" pointer-events="none" font-size="8px" fill="#000000" x="51.355586753578756" y="3" font-family="sans-serif">ACTED_IN</text></g><g class="relationship" transform="translate(36.3987133847404 24.57403394377077) rotate(519.5719207249056)"><path class="outline" fill="#A5ABB6" stroke="none" d="M 25 0.5 L 37.740264680803946 0.5 L 37.740264680803946 -0.5 L 25 -0.5 Z M 83.30276468080395 0.5 L 96.04302936160789 0.5 L 96.04302936160789 3.5 L 103.04302936160789 0 L 96.04302936160789 -3.5 L 96.04302936160789 -0.5 L 83.30276468080395 -0.5 Z"/><text text-anchor="middle" pointer-events="none" font-size="8px" fill="#000000" x="60.521514680803946" y="3" transform="rotate(180 60.521514680803946 0)" font-family="sans-serif">ACTED_IN</text></g><g class="relationship" transform="translate(-87.1572720111869 196.94276008897052) rotate(271.599590483164)"><path class="outline" fill="#A5ABB6" stroke="none" d="M 25 0.5 L 37.58248448197551 0.5 L 37.58248448197551 -0.5 L 25 -0.5 Z M 83.14498448197551 0.5 L 95.72746896395103 0.5 L 95.72746896395103 3.5 L 102.72746896395103 0 L 95.72746896395103 -3.5 L 95.72746896395103 -0.5 L 83.14498448197551 -0.5 Z"/><text text-anchor="middle" pointer-events="none" font-size="8px" fill="#000000" x="60.36373448197551" y="3" font-family="sans-serif">ACTED_IN</text></g><g class="relationship" transform="translate(-197.49972376285746 7.96976715015159) rotate(388.2852629987337)"><path class="outline" fill="#A5ABB6" stroke="none" d="M 25 0.5 L 38.395103965159876 0.5 L 38.395103965159876 -0.5 L 25 -0.5 Z M 83.95760396515988 0.5 L 97.35270793031975 0.5 L 97.35270793031975 3.5 L 104.35270793031975 0 L 97.35270793031975 -3.5 L 97.35270793031975 -0.5 L 83.95760396515988 -0.5 Z"/><text text-anchor="middle" pointer-events="none" font-size="8px" fill="#000000" x="61.176353965159876" y="3" font-family="sans-serif">ACTED_IN</text></g><g class="relationship" transform="translate(-175.82781442527843 -79.63484424270197) rotate(418.22387174186184)"><path class="outline" fill="#A5ABB6" stroke="none" d="M 25 0.5 L 61.29537464751404 0.5 L 61.29537464751404 -0.5 L 25 -0.5 Z M 106.85787464751404 0.5 L 143.15324929502808 0.5 L 143.15324929502808 3.5 L 150.15324929502808 0 L 143.15324929502808 -3.5 L 143.15324929502808 -0.5 L 106.85787464751404 -0.5 Z"/><text text-anchor="middle" pointer-events="none" font-size="8px" fill="#000000" x="84.07662464751404" y="3" font-family="sans-serif">ACTED_IN</text></g><g class="relationship" transform="translate(-169.9630858384023 85.87649739167406) rotate(349.11346556614444)"><path class="outline" fill="#A5ABB6" stroke="none" d="M 25 0.5 L 25.47708071106014 0.5 L 25.47708071106014 -0.5 L 25 -0.5 Z M 55.47708071106014 0.5 L 55.95416142212028 0.5 L 55.95416142212028 3.5 L 62.95416142212028 0 L 55.95416142212028 -3.5 L 55.95416142212028 -0.5 L 55.47708071106014 -0.5 Z"/><text text-anchor="middle" pointer-events="none" font-size="8px" fill="#000000" x="40.47708071106014" y="3" font-family="sans-serif">ACT…</text></g></g><g class="layer nodes"><g class="node" transform="translate(36.3987133847404,24.57403394377077)"><circle class="outline" cx="0" cy="0" r="25" fill="#57C7E3" stroke="#23b3d7" stroke-width="2px"/><text text-anchor="middle" pointer-events="none" font-family="sans-serif" dy="1.5625" font-size="25" fill="#2A2C34"/><text text-anchor="middle" pointer-events="none" font-family="sans-serif" dy="1.5625" font-size="25" fill="#2A2C34"/><text text-anchor="middle" pointer-events="none" x="0" y="0" font-size="10px" fill="#2A2C34" font-family="sans-serif"> Hugo</text><text text-anchor="middle" pointer-events="none" x="0" y="10" font-size="10px" fill="#2A2C34" font-family="sans-serif"> Weaving</text></g><g class="node" transform="translate(101.99428942638357,151.46711882156328)"><circle class="outline" cx="0" cy="0" r="25" fill="#F79767" stroke="#f36924" stroke-width="2px"/><text text-anchor="middle" pointer-events="none" font-family="sans-serif" dy="1.5625" font-size="25" fill="#FFFFFF"/><text text-anchor="middle" pointer-events="none" font-family="sans-serif" dy="1.5625" font-size="25" fill="#FFFFFF"/><text text-anchor="middle" pointer-events="none" x="0" y="0" font-size="10px" fill="#FFFFFF" font-family="sans-serif"> Cloud</text><text text-anchor="middle" pointer-events="none" x="0" y="10" font-size="10px" fill="#FFFFFF" font-family="sans-serif"> Atlas</text></g><g class="node" transform="translate(78.73760231526731,274.49604731099487)"><circle class="outline" cx="0" cy="0" r="25" fill="#57C7E3" stroke="#23b3d7" stroke-width="2px"/><text text-anchor="middle" pointer-events="none" font-family="sans-serif" dy="1.5625" font-size="25" fill="#2A2C34"/><text text-anchor="middle" pointer-events="none" font-family="sans-serif" dy="1.5625" font-size="25" fill="#2A2C34"/><text text-anchor="middle" pointer-events="none" x="0" y="0" font-size="10px" fill="#2A2C34" font-family="sans-serif"> Tom</text><text text-anchor="middle" pointer-events="none" x="0" y="10" font-size="10px" fill="#2A2C34" font-family="sans-serif"> Hanks</text></g><g class="node" transform="translate(164.88274120695195,264.4559127115531)"><circle class="outline" cx="0" cy="0" r="25" fill="#57C7E3" stroke="#23b3d7" stroke-width="2px"/><text text-anchor="middle" pointer-events="none" font-family="sans-serif" dy="1.5625" font-size="25" fill="#2A2C34"/><text text-anchor="middle" pointer-events="none" font-family="sans-serif" dy="1.5625" font-size="25" fill="#2A2C34"/><text text-anchor="middle" pointer-events="none" x="0" y="0" font-size="10px" fill="#2A2C34" font-family="sans-serif"> Jim</text><text text-anchor="middle" pointer-events="none" x="0" y="10" font-size="10px" fill="#2A2C34" font-family="sans-serif"> Broadb…</text></g><g class="node" transform="translate(218.05871152582938,200.60583543343554)"><circle class="outline" cx="0" cy="0" r="25" fill="#57C7E3" stroke="#23b3d7" stroke-width="2px"/><text text-anchor="middle" pointer-events="none" font-family="sans-serif" dy="1.5625" font-size="25" fill="#2A2C34"/><text text-anchor="middle" pointer-events="none" font-family="sans-serif" dy="1.5625" font-size="25" fill="#2A2C34"/><text text-anchor="middle" pointer-events="none" x="0" y="0" font-size="10px" fill="#2A2C34" font-family="sans-serif"> Halle</text><text text-anchor="middle" pointer-events="none" x="0" y="10" font-size="10px" fill="#2A2C34" font-family="sans-serif"> Berry</text></g><g class="node" transform="translate(158.5341234240388,-12.867070563848221)"><circle class="outline" cx="0" cy="0" r="25" fill="#F79767" stroke="#f36924" stroke-width="2px"/><text text-anchor="middle" pointer-events="none" font-family="sans-serif" dy="1.5625" font-size="25" fill="#FFFFFF"/><text text-anchor="middle" pointer-events="none" font-family="sans-serif" dy="1.5625" font-size="25" fill="#FFFFFF"/><text text-anchor="middle" pointer-events="none" x="0" y="0" font-size="10px" fill="#FFFFFF" font-family="sans-serif"> V for</text><text text-anchor="middle" pointer-events="none" x="0" y="10" font-size="10px" fill="#FFFFFF" font-family="sans-serif"> Vendetta</text></g><g class="node" transform="translate(253.00069603728645,65.61436629975569)"><circle class="outline" cx="0" cy="0" r="25" fill="#57C7E3" stroke="#23b3d7" stroke-width="2px"/><text text-anchor="middle" pointer-events="none" font-family="sans-serif" dy="1.5625" font-size="25" fill="#2A2C34"/><text text-anchor="middle" pointer-events="none" x="0" y="5" font-size="10px" fill="#2A2C34" font-family="sans-serif"> Ben Miles</text></g><g class="node" transform="translate(284.1561809206836,-7.944778352265623)"><circle class="outline" cx="0" cy="0" r="25" fill="#57C7E3" stroke="#23b3d7" stroke-width="2px"/><text text-anchor="middle" pointer-events="none" font-family="sans-serif" dy="1.5625" font-size="25" fill="#2A2C34"/><text text-anchor="middle" pointer-events="none" font-family="sans-serif" dy="1.5625" font-size="25" fill="#2A2C34"/><text text-anchor="middle" pointer-events="none" x="0" y="0" font-size="10px" fill="#2A2C34" font-family="sans-serif"> Natalie</text><text text-anchor="middle" pointer-events="none" x="0" y="10" font-size="10px" fill="#2A2C34" font-family="sans-serif"> Portman</text></g><g class="node" transform="translate(252.6834250164,-89.10514134977913)"><circle class="outline" cx="0" cy="0" r="25" fill="#57C7E3" stroke="#23b3d7" stroke-width="2px"/><text text-anchor="middle" pointer-events="none" font-family="sans-serif" dy="1.5625" font-size="25" fill="#2A2C34"/><text text-anchor="middle" pointer-events="none" x="0" y="5" font-size="10px" fill="#2A2C34" font-family="sans-serif"> John Hurt</text></g><g class="node" transform="translate(163.76848726668004,-129.71659292927998)"><circle class="outline" cx="0" cy="0" r="25" fill="#57C7E3" stroke="#23b3d7" stroke-width="2px"/><text text-anchor="middle" pointer-events="none" font-family="sans-serif" dy="1.5625" font-size="25" fill="#2A2C34"/><text text-anchor="middle" pointer-events="none" font-family="sans-serif" dy="1.5625" font-size="25" fill="#2A2C34"/><text text-anchor="middle" pointer-events="none" x="0" y="0" font-size="10px" fill="#2A2C34" font-family="sans-serif"> Stephen</text><text text-anchor="middle" pointer-events="none" x="0" y="10" font-size="10px" fill="#2A2C34" font-family="sans-serif"> Rea</text></g><g class="node" transform="translate(-77.47106758984182,-48.57959774599011)"><circle class="outline" cx="0" cy="0" r="25" fill="#F79767" stroke="#f36924" stroke-width="2px"/><text text-anchor="middle" pointer-events="none" font-family="sans-serif" dy="1.5625" font-size="25" fill="#FFFFFF"/><text text-anchor="middle" pointer-events="none" font-family="sans-serif" dy="1.5625" font-size="25" fill="#FFFFFF"/><text text-anchor="middle" pointer-events="none" font-family="sans-serif" dy="1.5625" font-size="25" fill="#FFFFFF"/><text text-anchor="middle" pointer-events="none" x="0" y="-5" font-size="10px" fill="#FFFFFF" font-family="sans-serif"> The</text><text text-anchor="middle" pointer-events="none" x="0" y="5" font-size="10px" fill="#FFFFFF" font-family="sans-serif"> Matrix</text><text text-anchor="middle" pointer-events="none" x="0" y="15" font-size="10px" fill="#FFFFFF" font-family="sans-serif"> Revol…</text></g><g class="node" transform="translate(-197.49972376285746,7.96976715015159)"><circle class="outline" cx="0" cy="0" r="25" fill="#57C7E3" stroke="#23b3d7" stroke-width="2px"/><text text-anchor="middle" pointer-events="none" font-family="sans-serif" dy="1.5625" font-size="25" fill="#2A2C34"/><text text-anchor="middle" pointer-events="none" font-family="sans-serif" dy="1.5625" font-size="25" fill="#2A2C34"/><text text-anchor="middle" pointer-events="none" x="0" y="0" font-size="10px" fill="#2A2C34" font-family="sans-serif"> Laurence</text><text text-anchor="middle" pointer-events="none" x="0" y="10" font-size="10px" fill="#2A2C34" font-family="sans-serif"> Fishbur…</text></g><g class="node" transform="translate(-175.82781442527843,-79.63484424270197)"><circle class="outline" cx="0" cy="0" r="25" fill="#57C7E3" stroke="#23b3d7" stroke-width="2px"/><text text-anchor="middle" pointer-events="none" font-family="sans-serif" dy="1.5625" font-size="25" fill="#2A2C34"/><text text-anchor="middle" pointer-events="none" x="0" y="5" font-size="10px" fill="#2A2C34" font-family="sans-serif"> Carrie-A…</text></g><g class="node" transform="translate(-169.9630858384023,85.87649739167406)"><circle class="outline" cx="0" cy="0" r="25" fill="#57C7E3" stroke="#23b3d7" stroke-width="2px"/><text text-anchor="middle" pointer-events="none" font-family="sans-serif" dy="1.5625" font-size="25" fill="#2A2C34"/><text text-anchor="middle" pointer-events="none" font-family="sans-serif" dy="1.5625" font-size="25" fill="#2A2C34"/><text text-anchor="middle" pointer-events="none" x="0" y="0" font-size="10px" fill="#2A2C34" font-family="sans-serif"> Keanu</text><text text-anchor="middle" pointer-events="none" x="0" y="10" font-size="10px" fill="#2A2C34" font-family="sans-serif"> Reeves</text></g><g class="node" transform="translate(-90.97210792582459,9.738681552681937)"><circle class="outline" cx="0" cy="0" r="25" fill="#F79767" stroke="#f36924" stroke-width="2px"/><text text-anchor="middle" pointer-events="none" font-family="sans-serif" dy="1.5625" font-size="25" fill="#FFFFFF"/><text text-anchor="middle" pointer-events="none" font-family="sans-serif" dy="1.5625" font-size="25" fill="#FFFFFF"/><text text-anchor="middle" pointer-events="none" font-family="sans-serif" dy="1.5625" font-size="25" fill="#FFFFFF"/><text text-anchor="middle" pointer-events="none" x="0" y="-5" font-size="10px" fill="#FFFFFF" font-family="sans-serif"> The</text><text text-anchor="middle" pointer-events="none" x="0" y="5" font-size="10px" fill="#FFFFFF" font-family="sans-serif"> Matrix</text><text text-anchor="middle" pointer-events="none" x="0" y="15" font-size="10px" fill="#FFFFFF" font-family="sans-serif"> Reloa…</text></g><g class="node" transform="translate(-83.59182433335606,69.26506465709909)"><circle class="outline" cx="0" cy="0" r="25" fill="#F79767" stroke="#f36924" stroke-width="2px"/><text text-anchor="middle" pointer-events="none" font-family="sans-serif" dy="1.5625" font-size="25" fill="#FFFFFF"/><text text-anchor="middle" pointer-events="none" font-family="sans-serif" dy="1.5625" font-size="25" fill="#FFFFFF"/><text text-anchor="middle" pointer-events="none" x="0" y="0" font-size="10px" fill="#FFFFFF" font-family="sans-serif"> The</text><text text-anchor="middle" pointer-events="none" x="0" y="10" font-size="10px" fill="#FFFFFF" font-family="sans-serif"> Matrix</text></g><g class="node" transform="translate(-87.1572720111869,196.94276008897052)"><circle class="outline" cx="0" cy="0" r="25" fill="#57C7E3" stroke="#23b3d7" stroke-width="2px"/><text text-anchor="middle" pointer-events="none" font-family="sans-serif" dy="1.5625" font-size="25" fill="#2A2C34"/><text text-anchor="middle" pointer-events="none" font-family="sans-serif" dy="1.5625" font-size="25" fill="#2A2C34"/><text text-anchor="middle" pointer-events="none" x="0" y="0" font-size="10px" fill="#2A2C34" font-family="sans-serif"> Emil</text><text text-anchor="middle" pointer-events="none" x="0" y="10" font-size="10px" fill="#2A2C34" font-family="sans-serif"> Eifrem</text></g></g></svg>