<svg xmlns="http://www.w3.org/2000/svg" width="425.5237121582031" height="498.66510009765625" viewBox="36.082733154296875 -207.78915405273438 425.5237121582031 498.66510009765625"><title>Neo4j Graph Visualization</title><desc>Created using Neo4j (http://www.neo4j.com/)</desc><g class="layer relationships"><g class="relationship" transform="translate(209.02433534888257 144.10835415276773) rotate(313.07165396881874)"><path class="outline" fill="#A5ABB6" stroke="none" d="M 25 0.5 L 128.02382445404047 0.5 L 128.02382445404047 -0.5 L 25 -0.5 Z M 173.58632445404047 0.5 L 276.61014890808093 0.5 L 276.61014890808093 3.5 L 283.61014890808093 0 L 276.61014890808093 -3.5 L 276.61014890808093 -0.5 L 173.58632445404047 -0.5 Z"/><text text-anchor="middle" pointer-events="none" font-size="8px" fill="#000000" x="150.80507445404047" y="3" font-family="sans-serif">ACTED_IN</text></g><g class="relationship" transform="translate(209.02433534888257 144.10835415276773) rotate(509.53526611358205)"><path class="outline" fill="#A5ABB6" stroke="none" d="M 25 0.5 L 38.42726226223847 0.5 L 38.42726226223847 -0.5 L 25 -0.5 Z M 83.98976226223847 0.5 L 97.41702452447694 0.5 L 97.41702452447694 3.5 L 104.41702452447694 0 L 97.41702452447694 -3.5 L 97.41702452447694 -0.5 L 83.98976226223847 -0.5 Z"/><text text-anchor="middle" pointer-events="none" font-size="8px" fill="#000000" x="61.20851226223847" y="3" transform="rotate(180 61.20851226223847 0)" font-family="sans-serif">ACTED_IN</text></g><g class="relationship" transform="translate(209.02433534888257 144.10835415276773) rotate(464.2330891816033)"><path class="outline" fill="#A5ABB6" stroke="none" d="M 25 0.5 L 34.4673095878991 0.5 L 34.4673095878991 -0.5 L 25 -0.5 Z M 80.02980958789911 0.5 L 89.4971191757982 0.5 L 89.4971191757982 3.5 L 96.4971191757982 0 L 89.4971191757982 -3.5 L 89.4971191757982 -0.5 L 80.02980958789911 -0.5 Z"/><text text-anchor="middle" pointer-events="none" font-size="8px" fill="#000000" x="57.2485595878991" y="3" transform="rotate(180 57.2485595878991 0)" font-family="sans-serif">ACTED_IN</text></g><g class="relationship" transform="translate(209.02433534888257 144.10835415276773) rotate(347.40101207185)"><path class="outline" fill="#A5ABB6" stroke="none" d="M 25 0.5 L 88.26810568746943 0.5 L 88.26810568746943 -0.5 L 25 -0.5 Z M 133.83060568746941 0.5 L 197.09871137493886 0.5 L 197.09871137493886 3.5 L 204.09871137493886 0 L 197.09871137493886 -3.5 L 197.09871137493886 -0.5 L 133.83060568746941 -0.5 Z"/><text text-anchor="middle" pointer-events="none" font-size="8px" fill="#000000" x="111.04935568746943" y="3" font-family="sans-serif">ACTED_IN</text></g><g class="relationship" transform="translate(209.02433534888257 144.10835415276773) rotate(325.8211706514428)"><path class="outline" fill="#A5ABB6" stroke="none" d="M 25 0.5 L 99.3483836844062 0.5 L 99.3483836844062 -0.5 L 25 -0.5 Z M 144.9108836844062 0.5 L 219.2592673688124 0.5 L 219.2592673688124 3.5 L 226.2592673688124 0 L 219.2592673688124 -3.5 L 219.2592673688124 -0.5 L 144.9108836844062 -0.5 Z"/><text text-anchor="middle" pointer-events="none" font-size="8px" fill="#000000" x="122.1296336844062" y="3" font-family="sans-serif">ACTED_IN</text></g><g class="relationship" transform="translate(208.87459916756148 71.7262654696203) rotate(324.03070750869665)"><path class="outline" fill="#A5ABB6" stroke="none" d="M 25 0.5 L 104.01353440339128 0.5 L 104.01353440339128 -0.5 L 25 -0.5 Z M 149.57603440339128 0.5 L 228.58956880678255 0.5 L 228.58956880678255 3.5 L 235.58956880678255 0 L 228.58956880678255 -3.5 L 228.58956880678255 -0.5 L 149.57603440339128 -0.5 Z"/><text text-anchor="middle" pointer-events="none" font-size="8px" fill="#000000" x="126.79478440339128" y="3" font-family="sans-serif">ACTED_IN</text></g><g class="relationship" transform="translate(208.87459916756148 71.7262654696203) rotate(365.71985116280354)"><path class="outline" fill="#A5ABB6" stroke="none" d="M 25 0.5 L 86.14445217734873 0.5 L 86.14445217734873 -0.5 L 25 -0.5 Z M 131.70695217734874 0.5 L 192.85140435469745 0.5 L 192.85140435469745 3.5 L 199.85140435469745 0 L 192.85140435469745 -3.5 L 192.85140435469745 -0.5 L 131.70695217734874 -0.5 Z"/><text text-anchor="middle" pointer-events="none" font-size="8px" fill="#000000" x="108.92570217734873" y="3" font-family="sans-serif">ACTED_IN</text></g><g class="relationship" transform="translate(208.87459916756148 71.7262654696203) rotate(341.7059927673513)"><path class="outline" fill="#A5ABB6" stroke="none" d="M 25 0.5 L 83.2620346891062 0.5 L 83.2620346891062 -0.5 L 25 -0.5 Z M 128.8245346891062 0.5 L 187.0865693782124 0.5 L 187.0865693782124 3.5 L 194.0865693782124 0 L 187.0865693782124 -3.5 L 187.0865693782124 -0.5 L 128.8245346891062 -0.5 Z"/><text text-anchor="middle" pointer-events="none" font-size="8px" fill="#000000" x="106.0432846891062" y="3" font-family="sans-serif">ACTED_IN</text></g><g class="relationship" transform="translate(201.19885247162716 5.43506695173062) rotate(338.3490612580474)"><path class="outline" fill="#A5ABB6" stroke="none" d="M 25 0.5 L 91.3041342868296 0.5 L 91.3041342868296 -0.5 L 25 -0.5 Z M 136.8666342868296 0.5 L 203.1707685736592 0.5 L 203.1707685736592 3.5 L 210.1707685736592 0 L 203.1707685736592 -3.5 L 203.1707685736592 -0.5 L 136.8666342868296 -0.5 Z"/><text text-anchor="middle" pointer-events="none" font-size="8px" fill="#000000" x="114.0853842868296" y="3" font-family="sans-serif">ACTED_IN</text></g><g class="relationship" transform="translate(201.19885247162716 5.43506695173062) rotate(380.97233626543436)"><path class="outline" fill="#A5ABB6" stroke="none" d="M 25 0.5 L 97.63136523800753 0.5 L 97.63136523800753 -0.5 L 25 -0.5 Z M 143.19386523800753 0.5 L 215.82523047601507 0.5 L 215.82523047601507 3.5 L 222.82523047601507 0 L 215.82523047601507 -3.5 L 215.82523047601507 -0.5 L 143.19386523800753 -0.5 Z"/><text text-anchor="middle" pointer-events="none" font-size="8px" fill="#000000" x="120.41261523800753" y="3" font-family="sans-serif">ACTED_IN</text></g><g class="relationship" transform="translate(201.19885247162716 5.43506695173062) rotate(359.34161950903365)"><path class="outline" fill="#A5ABB6" stroke="none" d="M 25 0.5 L 81.57052608884679 0.5 L 81.57052608884679 -0.5 L 25 -0.5 Z M 127.13302608884679 0.5 L 183.70355217769358 0.5 L 183.70355217769358 3.5 L 190.70355217769358 0 L 183.70355217769358 -3.5 L 183.70355217769358 -0.5 L 127.13302608884679 -0.5 Z"/><text text-anchor="middle" pointer-events="none" font-size="8px" fill="#000000" x="104.35177608884679" y="3" font-family="sans-serif">ACTED_IN</text></g><g class="relationship" transform="translate(198.97558816150143 -72.3900483007854) rotate(357.6810783337178)"><path class="outline" fill="#A5ABB6" stroke="none" d="M 25 0.5 L 84.21046399199722 0.5 L 84.21046399199722 -0.5 L 25 -0.5 Z M 129.77296399199722 0.5 L 188.98342798399443 0.5 L 188.98342798399443 3.5 L 195.98342798399443 0 L 188.98342798399443 -3.5 L 188.98342798399443 -0.5 L 129.77296399199722 -0.5 Z"/><text text-anchor="middle" pointer-events="none" font-size="8px" fill="#000000" x="106.99171399199722" y="3" font-family="sans-serif">ACTED_IN</text></g><g class="relationship" transform="translate(198.97558816150143 -72.3900483007854) rotate(252.24203095861333)"><path class="outline" fill="#A5ABB6" stroke="none" d="M 25 0.5 L 29.579895633683662 0.5 L 29.579895633683662 -0.5 L 25 -0.5 Z M 75.14239563368366 0.5 L 79.72229126736732 0.5 L 79.72229126736732 3.5 L 86.72229126736732 0 L 79.72229126736732 -3.5 L 79.72229126736732 -0.5 L 75.14239563368366 -0.5 Z"/><text text-anchor="middle" pointer-events="none" font-size="8px" fill="#000000" x="52.36114563368366" y="3" transform="rotate(180 52.36114563368366 0)" font-family="sans-serif">ACTED_IN</text></g><g class="relationship" transform="translate(198.97558816150143 -72.3900483007854) rotate(205.5140214938184)"><path class="outline" fill="#A5ABB6" stroke="none" d="M 25 0.5 L 36.08970650170052 0.5 L 36.08970650170052 -0.5 L 25 -0.5 Z M 81.65220650170052 0.5 L 92.74191300340104 0.5 L 92.74191300340104 3.5 L 99.74191300340104 0 L 92.74191300340104 -3.5 L 92.74191300340104 -0.5 L 81.65220650170052 -0.5 Z"/><text text-anchor="middle" pointer-events="none" font-size="8px" fill="#000000" x="58.87095650170052" y="3" transform="rotate(180 58.87095650170052 0)" font-family="sans-serif">ACTED_IN</text></g><g class="relationship" transform="translate(198.97558816150143 -72.3900483007854) rotate(532.5290040005318)"><path class="outline" fill="#A5ABB6" stroke="none" d="M 25 0.5 L 41.23836580537733 0.5 L 41.23836580537733 -0.5 L 25 -0.5 Z M 86.80086580537733 0.5 L 103.03923161075465 0.5 L 103.03923161075465 3.5 L 110.03923161075465 0 L 103.03923161075465 -3.5 L 103.03923161075465 -0.5 L 86.80086580537733 -0.5 Z"/><text text-anchor="middle" pointer-events="none" font-size="8px" fill="#000000" x="64.01961580537733" y="3" transform="rotate(180 64.01961580537733 0)" font-family="sans-serif">ACTED_IN</text></g><g class="relationship" transform="translate(198.97558816150143 -72.3900483007854) rotate(502.96684832109145)"><path class="outline" fill="#A5ABB6" stroke="none" d="M 25 0.5 L 41.37481457784111 0.5 L 41.37481457784111 -0.5 L 25 -0.5 Z M 86.93731457784111 0.5 L 103.31212915568221 0.5 L 103.31212915568221 3.5 L 110.31212915568221 0 L 103.31212915568221 -3.5 L 103.31212915568221 -0.5 L 86.93731457784111 -0.5 Z"/><text text-anchor="middle" pointer-events="none" font-size="8px" fill="#000000" x="64.15606457784111" y="3" transform="rotate(180 64.15606457784111 0)" font-family="sans-serif">ACTED_IN</text></g><g class="relationship" transform="translate(198.97558816150143 -72.3900483007854) rotate(395.4802809992392)"><path class="outline" fill="#A5ABB6" stroke="none" d="M 25 0.5 L 117.17110507718868 0.5 L 117.17110507718868 -0.5 L 25 -0.5 Z M 162.73360507718868 0.5 L 254.90471015437737 0.5 L 254.90471015437737 3.5 L 261.90471015437737 0 L 254.90471015437737 -3.5 L 254.90471015437737 -0.5 L 162.73360507718868 -0.5 Z"/><text text-anchor="middle" pointer-events="none" font-size="8px" fill="#000000" x="139.95235507718868" y="3" font-family="sans-serif">ACTED_IN</text></g><g class="relationship" transform="translate(198.97558816150143 -72.3900483007854) rotate(379.0735939241366)"><path class="outline" fill="#A5ABB6" stroke="none" d="M 25 0.5 L 89.0042562666771 0.5 L 89.0042562666771 -0.5 L 25 -0.5 Z M 134.5667562666771 0.5 L 198.5710125333542 0.5 L 198.5710125333542 3.5 L 205.5710125333542 0 L 198.5710125333542 -3.5 L 198.5710125333542 -0.5 L 134.5667562666771 -0.5 Z"/><text text-anchor="middle" pointer-events="none" font-size="8px" fill="#000000" x="111.7855062666771" y="3" font-family="sans-serif">ACTED_IN</text></g></g><g class="layer nodes"><g class="node" transform="translate(419.7780500073277,-81.33142886419354)"><circle class="outline" cx="0" cy="0" r="25" fill="#F79767" stroke="#f36924" stroke-width="2px"/><text text-anchor="middle" pointer-events="none" font-family="sans-serif" dy="1.5625" font-size="25" fill="#FFFFFF"/><text text-anchor="middle" pointer-events="none" font-family="sans-serif" dy="1.5625" font-size="25" fill="#FFFFFF"/><text text-anchor="middle" pointer-events="none" x="0" y="0" font-size="10px" fill="#FFFFFF" font-family="sans-serif"> The</text><text text-anchor="middle" pointer-events="none" x="0" y="10" font-size="10px" fill="#FFFFFF" font-family="sans-serif"> Matrix</text></g><g class="node" transform="translate(209.02433534888257,144.10835415276773)"><circle class="outline" cx="0" cy="0" r="25" fill="#57C7E3" stroke="#23b3d7" stroke-width="2px"/><text text-anchor="middle" pointer-events="none" font-family="sans-serif" dy="1.5625" font-size="25" fill="#2A2C34"/><text text-anchor="middle" pointer-events="none" font-family="sans-serif" dy="1.5625" font-size="25" fill="#2A2C34"/><text text-anchor="middle" pointer-events="none" x="0" y="0" font-size="10px" fill="#2A2C34" font-family="sans-serif"> Hugo</text><text text-anchor="middle" pointer-events="none" x="0" y="10" font-size="10px" fill="#2A2C34" font-family="sans-serif"> Weaving</text></g><g class="node" transform="translate(97.47444507643095,209.72381130253592)"><circle class="outline" cx="0" cy="0" r="25" fill="#F79767" stroke="#f36924" stroke-width="2px"/><text text-anchor="middle" pointer-events="none" font-family="sans-serif" dy="1.5625" font-size="25" fill="#FFFFFF"/><text text-anchor="middle" pointer-events="none" font-family="sans-serif" dy="1.5625" font-size="25" fill="#FFFFFF"/><text text-anchor="middle" pointer-events="none" x="0" y="0" font-size="10px" fill="#FFFFFF" font-family="sans-serif"> Cloud</text><text text-anchor="middle" pointer-events="none" x="0" y="10" font-size="10px" fill="#FFFFFF" font-family="sans-serif"> Atlas</text></g><g class="node" transform="translate(179.15217710780146,261.8759393790851)"><circle class="outline" cx="0" cy="0" r="25" fill="#F79767" stroke="#f36924" stroke-width="2px"/><text text-anchor="middle" pointer-events="none" font-family="sans-serif" dy="1.5625" font-size="25" fill="#FFFFFF"/><text text-anchor="middle" pointer-events="none" font-family="sans-serif" dy="1.5625" font-size="25" fill="#FFFFFF"/><text text-anchor="middle" pointer-events="none" x="0" y="0" font-size="10px" fill="#FFFFFF" font-family="sans-serif"> V for</text><text text-anchor="middle" pointer-events="none" x="0" y="10" font-size="10px" fill="#FFFFFF" font-family="sans-serif"> Vendetta</text></g><g class="node" transform="translate(432.60649066466505,94.13596799794358)"><circle class="outline" cx="0" cy="0" r="25" fill="#F79767" stroke="#f36924" stroke-width="2px"/><text text-anchor="middle" pointer-events="none" font-family="sans-serif" dy="1.5625" font-size="25" fill="#FFFFFF"/><text text-anchor="middle" pointer-events="none" font-family="sans-serif" dy="1.5625" font-size="25" fill="#FFFFFF"/><text text-anchor="middle" pointer-events="none" font-family="sans-serif" dy="1.5625" font-size="25" fill="#FFFFFF"/><text text-anchor="middle" pointer-events="none" x="0" y="-5" font-size="10px" fill="#FFFFFF" font-family="sans-serif"> The</text><text text-anchor="middle" pointer-events="none" x="0" y="5" font-size="10px" fill="#FFFFFF" font-family="sans-serif"> Matrix</text><text text-anchor="middle" pointer-events="none" x="0" y="15" font-size="10px" fill="#FFFFFF" font-family="sans-serif"> Revol…</text></g><g class="node" transform="translate(416.8881639549861,2.9564919761575226)"><circle class="outline" cx="0" cy="0" r="25" fill="#F79767" stroke="#f36924" stroke-width="2px"/><text text-anchor="middle" pointer-events="none" font-family="sans-serif" dy="1.5625" font-size="25" fill="#FFFFFF"/><text text-anchor="middle" pointer-events="none" font-family="sans-serif" dy="1.5625" font-size="25" fill="#FFFFFF"/><text text-anchor="middle" pointer-events="none" font-family="sans-serif" dy="1.5625" font-size="25" fill="#FFFFFF"/><text text-anchor="middle" pointer-events="none" x="0" y="-5" font-size="10px" fill="#FFFFFF" font-family="sans-serif"> The</text><text text-anchor="middle" pointer-events="none" x="0" y="5" font-size="10px" fill="#FFFFFF" font-family="sans-serif"> Matrix</text><text text-anchor="middle" pointer-events="none" x="0" y="15" font-size="10px" fill="#FFFFFF" font-family="sans-serif"> Reloa…</text></g><g class="node" transform="translate(208.87459916756148,71.7262654696203)"><circle class="outline" cx="0" cy="0" r="25" fill="#57C7E3" stroke="#23b3d7" stroke-width="2px"/><text text-anchor="middle" pointer-events="none" font-family="sans-serif" dy="1.5625" font-size="25" fill="#2A2C34"/><text text-anchor="middle" pointer-events="none" font-family="sans-serif" dy="1.5625" font-size="25" fill="#2A2C34"/><text text-anchor="middle" pointer-events="none" x="0" y="0" font-size="10px" fill="#2A2C34" font-family="sans-serif"> Laurence</text><text text-anchor="middle" pointer-events="none" x="0" y="10" font-size="10px" fill="#2A2C34" font-family="sans-serif"> Fishbur…</text></g><g class="node" transform="translate(201.19885247162716,5.43506695173062)"><circle class="outline" cx="0" cy="0" r="25" fill="#57C7E3" stroke="#23b3d7" stroke-width="2px"/><text text-anchor="middle" pointer-events="none" font-family="sans-serif" dy="1.5625" font-size="25" fill="#2A2C34"/><text text-anchor="middle" pointer-events="none" x="0" y="5" font-size="10px" fill="#2A2C34" font-family="sans-serif"> Carrie-A…</text></g><g class="node" transform="translate(198.97558816150143,-72.3900483007854)"><circle class="outline" cx="0" cy="0" r="25" fill="#57C7E3" stroke="#23b3d7" stroke-width="2px"/><text text-anchor="middle" pointer-events="none" font-family="sans-serif" dy="1.5625" font-size="25" fill="#2A2C34"/><text text-anchor="middle" pointer-events="none" font-family="sans-serif" dy="1.5625" font-size="25" fill="#2A2C34"/><text text-anchor="middle" pointer-events="none" x="0" y="0" font-size="10px" fill="#2A2C34" font-family="sans-serif"> Keanu</text><text text-anchor="middle" pointer-events="none" x="0" y="10" font-size="10px" fill="#2A2C34" font-family="sans-serif"> Reeves</text></g><g class="node" transform="translate(164.90065119223644,-178.78915091246665)"><circle class="outline" cx="0" cy="0" r="25" fill="#F79767" stroke="#f36924" stroke-width="2px"/><text text-anchor="middle" pointer-events="none" font-family="sans-serif" dy="1.5625" font-size="25" fill="#FFFFFF"/><text text-anchor="middle" pointer-events="none" font-family="sans-serif" dy="1.5625" font-size="25" fill="#FFFFFF"/><text text-anchor="middle" pointer-events="none" x="0" y="0" font-size="10px" fill="#FFFFFF" font-family="sans-serif"> The</text><text text-anchor="middle" pointer-events="none" x="0" y="10" font-size="10px" fill="#FFFFFF" font-family="sans-serif"> Replac…</text></g><g class="node" transform="translate(86.3985187242832,-126.12037769374386)"><circle class="outline" cx="0" cy="0" r="25" fill="#F79767" stroke="#f36924" stroke-width="2px"/><text text-anchor="middle" pointer-events="none" font-family="sans-serif" dy="1.5625" font-size="25" fill="#FFFFFF"/><text text-anchor="middle" pointer-events="none" font-family="sans-serif" dy="1.5625" font-size="25" fill="#FFFFFF"/><text text-anchor="middle" pointer-events="none" x="0" y="0" font-size="10px" fill="#FFFFFF" font-family="sans-serif"> Johnny</text><text text-anchor="middle" pointer-events="none" x="0" y="10" font-size="10px" fill="#FFFFFF" font-family="sans-serif"> Mnemo…</text></g><g class="node" transform="translate(65.08273042137597,-54.83166795960451)"><circle class="outline" cx="0" cy="0" r="25" fill="#F79767" stroke="#f36924" stroke-width="2px"/><text text-anchor="middle" pointer-events="none" font-family="sans-serif" dy="1.5625" font-size="25" fill="#FFFFFF"/><text text-anchor="middle" pointer-events="none" x="0" y="5" font-size="10px" fill="#FFFFFF" font-family="sans-serif"> Somethi…</text></g><g class="node" transform="translate(90.95765250861936,9.105337298240121)"><circle class="outline" cx="0" cy="0" r="25" fill="#F79767" stroke="#f36924" stroke-width="2px"/><text text-anchor="middle" pointer-events="none" font-family="sans-serif" dy="1.5625" font-size="25" fill="#FFFFFF"/><text text-anchor="middle" pointer-events="none" font-family="sans-serif" dy="1.5625" font-size="25" fill="#FFFFFF"/><text text-anchor="middle" pointer-events="none" font-family="sans-serif" dy="1.5625" font-size="25" fill="#FFFFFF"/><text text-anchor="middle" pointer-events="none" x="0" y="-5" font-size="10px" fill="#FFFFFF" font-family="sans-serif"> The</text><text text-anchor="middle" pointer-events="none" x="0" y="5" font-size="10px" fill="#FFFFFF" font-family="sans-serif"> Devil's</text><text text-anchor="middle" pointer-events="none" x="0" y="15" font-size="10px" fill="#FFFFFF" font-family="sans-serif"> Advoc…</text></g></g></svg>